<svg width="30" height="37" viewBox="0 0 30 37" fill="none" xmlns="http://www.w3.org/2000/svg">
<path d="M15.5 0C10.8131 0 7 3.8131 7 8.5C7 13.1869 10.8131 17 15.5 17C20.1869 17 24 13.1869 24 8.5C24 3.8131 20.1869 0 15.5 0Z" fill="white"/>
<path fill-rule="evenodd" clip-rule="evenodd" d="M25.7567 23.5649L28.9529 33.6767C29.0506 33.986 29.9943 37.5891 29.8013 37.8504C29.6083 38.1117 29.3017 38.2661 28.9755 38.2661C28.9755 38.2661 18.9881 42 14.3948 42C9.67108 42 1.02435 38.2661 1.02435 38.2661C0.698183 38.2661 0.391549 38.1117 0.198555 37.8504C0.0055598 37.5891 0.949287 33.986 1.04701 33.6767L4.24324 23.5648C4.91715 21.4326 6.8809 20 9.12971 20H11.8126C12.0843 20 12.3448 20.1073 12.5369 20.2982L14.9999 22.7461L17.463 20.2983C17.6551 20.1074 17.9157 20.0001 18.1874 20.0001H20.8702C23.119 20.0001 25.0827 21.4327 25.7567 23.5649ZM18.0731 29.5023H22.1707C22.7364 29.5023 23.195 29.0465 23.195 28.4842C23.195 27.9219 22.7364 27.4661 22.1707 27.4661H18.0731C17.5074 27.4661 17.0487 27.9219 17.0487 28.4842C17.0487 29.0465 17.5074 29.5023 18.0731 29.5023Z" fill="white"/>
</svg>
