<svg width="20" height="20" viewBox="0 0 20 20" fill="none" xmlns="http://www.w3.org/2000/svg">
<path fill-rule="evenodd" clip-rule="evenodd" d="M10.1297 1.1665C12.2528 1.1665 14.0218 2.84287 14.0765 4.86839L14.0766 5.05927C14.0766 5.19467 14.0555 5.38918 14.0152 5.65273L13.8899 6.38312L13.8304 6.70009L13.7139 7.29253C13.3097 9.28022 11.9288 10.6885 9.99999 10.6885C8.12512 10.6885 6.72919 9.34806 6.3261 7.49701L6.08211 6.21207L5.99476 5.70069C5.94782 5.40764 5.92378 5.20953 5.9245 5.10173C5.82149 3.08274 7.48865 1.39598 9.59067 1.18717L9.7954 1.17162L9.99999 1.1665H10.1297ZM15.3841 12.0951L10.1045 11.4263L9.89462 11.4264L4.70543 12.0879L4.49522 12.1281C2.89604 12.4674 1.59502 13.5215 1.43169 14.9269L1.09087 18.8332H18.8854L18.6588 15.0967L18.6399 14.9037C18.4425 13.3835 17.1579 12.4234 15.3841 12.0951ZM4.95105 13.736L9.99999 13.0918L15.1279 13.7413L15.3236 13.782L15.5097 13.8291C16.4158 14.0809 16.9529 14.5705 16.9956 15.2032L17.114 17.1658H2.90899L3.08964 15.0955L3.11069 14.9862C3.25689 14.4394 4.0078 13.8971 4.95105 13.736ZM9.86141 2.83683L10.1297 2.83317C11.3974 2.83317 12.441 3.85946 12.4102 5.03749C12.41 5.11184 12.3798 5.3338 12.3295 5.63467L12.1932 6.38796L12.1022 6.8539L12.0356 7.157C11.7395 8.31527 10.9944 9.0218 9.99999 9.0218C8.9362 9.0218 8.1388 8.21754 7.92365 6.98334L7.7496 6.06775L7.6739 5.63686C7.62206 5.32862 7.59008 5.1049 7.59008 5.05927L7.58862 4.90947C7.62197 3.81843 8.61527 2.90272 9.86141 2.83683Z" fill="#B3B1B7"/>
</svg>
