<svg width="20" height="20" viewBox="0 0 20 20" fill="none" xmlns="http://www.w3.org/2000/svg">
<path fill-rule="evenodd" clip-rule="evenodd" d="M15.223 2.68266C12.2609 0.266161 7.95543 0.468134 5.21986 3.18734L5.01804 3.39349L4.8562 3.57113C2.26836 6.50375 2.39424 10.9413 5.18481 13.7152L10.5014 19L15.8181 13.7152L15.9833 13.5457C18.7376 10.6315 18.6704 6.05748 15.783 3.18734L15.6069 3.01789L15.4167 2.84621L15.223 2.68266ZM6.55312 4.18267C8.73005 2.17108 12.0631 2.10474 14.3186 4.06583L14.4785 4.20973L14.6247 4.35096L14.7776 4.50855L14.9234 4.67023C16.9147 6.96154 16.8245 10.3996 14.65 12.5611L10.5015 16.6837L6.35285 12.5611L6.20145 12.4049C4.13089 10.189 4.12514 6.74059 6.21342 4.5196L6.39592 4.33333L6.55312 4.18267ZM10.5014 5.87421C11.9255 5.87421 13.0789 7.02074 13.0789 8.43383C13.0789 9.84691 11.9255 10.9934 10.5014 10.9934C9.07736 10.9934 7.92393 9.84691 7.92393 8.43383C7.92393 7.02074 9.07736 5.87421 10.5014 5.87421ZM9.57331 8.43383C9.57331 7.92238 9.9894 7.50878 10.5014 7.50878C11.0135 7.50878 11.4296 7.92238 11.4296 8.43383C11.4296 8.94527 11.0135 9.35888 10.5014 9.35888C9.9894 9.35888 9.57331 8.94527 9.57331 8.43383Z" fill="#B3B1B7"/>
</svg>
