<svg width="16" height="16" viewBox="0 0 16 16" fill="none" xmlns="http://www.w3.org/2000/svg">
<path fill-rule="evenodd" clip-rule="evenodd" d="M7.44677 15.5L7.9519 15.2679C9.89816 14.3739 10.3554 12.4049 9.32586 10.6686L8.83483 9.82701C8.71232 9.5914 8.70682 9.53853 8.91428 9.53182L11.6392 9.53142C12.2813 9.52353 12.9478 9.36251 13.5463 8.92573C14.4276 8.28256 14.8954 7.1901 14.8266 5.64553C14.7118 3.1844 12.5024 0.662109 11.2156 0.662109H5.76595C3.65229 0.68935 1.87502 2.21887 1.61457 4.23111L0.709961 9.53167L3.26338 9.53211L7.44677 15.5ZM7.92372 13.7308L7.86604 13.7754L3.95699 8.19834L2.28938 8.19878L2.96072 4.25794C3.20428 3.01684 4.3042 2.08049 5.63026 2.00071L5.77452 1.99544L11.1819 1.99589C11.16 1.99689 11.1666 1.99999 11.1856 2.0089L11.1879 2.01L11.2497 2.04141C11.2716 2.05326 11.2948 2.06648 11.3191 2.08098L11.4761 2.18289C11.7483 2.37218 12.0446 2.63788 12.3167 2.94849C13.0098 3.73973 13.4472 4.68865 13.4947 5.70626C13.5444 6.82282 13.2618 7.48269 12.7603 7.84873C12.424 8.09415 12.0132 8.19339 11.6309 8.19814L8.93279 8.19925C7.68495 8.23943 7.05971 9.3033 7.66726 10.4701L8.17633 11.3441C8.71437 12.2516 8.63655 13.1427 7.92372 13.7308Z" fill="#FF6161"/>
</svg>
