<svg width="22" height="22" viewBox="0 0 22 22" fill="none" xmlns="http://www.w3.org/2000/svg">
<path fill-rule="evenodd" clip-rule="evenodd" d="M17.4167 9.16663C17.4167 4.61028 13.7231 0.916626 9.16675 0.916626C4.6104 0.916626 0.916748 4.61028 0.916748 9.16663C0.916748 13.723 4.6104 17.4166 9.16675 17.4166C11.1145 17.4166 12.9045 16.7417 14.3158 15.6129L19.5186 20.8148L20.8149 19.5184L15.613 14.3157C16.7418 12.9044 17.4167 11.1143 17.4167 9.16663ZM2.75008 9.16663C2.75008 5.6228 5.62292 2.74996 9.16675 2.74996C12.7106 2.74996 15.5834 5.6228 15.5834 9.16663C15.5834 12.7105 12.7106 15.5833 9.16675 15.5833C5.62292 15.5833 2.75008 12.7105 2.75008 9.16663Z" fill="#B3B1B7"/>
</svg>
