<svg width="12" height="10" viewBox="0 0 12 10" fill="none" xmlns="http://www.w3.org/2000/svg">
<path fill-rule="evenodd" clip-rule="evenodd" d="M11.4967 0.410229C11.158 0.627182 10.3803 0.942443 9.9968 0.942443V0.94309C9.55888 0.485612 8.94235 0.200012 8.25859 0.200012C6.93059 0.200012 5.85373 1.27687 5.85373 2.60436C5.85373 2.7888 5.8751 2.96871 5.9146 3.14124H5.91421C4.1128 3.09396 2.14261 2.19105 0.95656 0.645704C0.227341 1.90791 0.858381 3.31169 1.68591 3.82318C1.40264 3.84455 0.881177 3.79054 0.63573 3.55105C0.61928 4.38881 1.0221 5.49883 2.4909 5.90152C2.20802 6.05371 1.70728 6.01006 1.48955 5.97768C1.56597 6.68488 2.55631 7.60942 3.63926 7.60942C3.25328 8.05589 1.80106 8.86567 0.171387 8.60805C1.27817 9.28144 2.5681 9.67144 3.93341 9.67144C7.81329 9.67144 10.8264 6.52699 10.6642 2.64788C10.6636 2.64361 10.6636 2.63933 10.6632 2.63467C10.6636 2.6247 10.6642 2.61472 10.6642 2.60436C10.6642 2.59232 10.6632 2.58092 10.6628 2.56926C11.016 2.3277 11.49 1.9004 11.8285 1.33801C11.6322 1.44616 11.0431 1.66272 10.495 1.71648C10.8467 1.52659 11.3679 0.904751 11.4967 0.410229Z" fill="white"/>
</svg>
