<svg width="13" height="12" viewBox="0 0 13 12" fill="none" xmlns="http://www.w3.org/2000/svg">
<path fill-rule="evenodd" clip-rule="evenodd" d="M2.32528 2.9029C3.15141 2.9029 3.82115 2.29214 3.82115 1.53789C3.82115 0.782982 3.15141 0.171417 2.32528 0.171417C1.49835 0.171417 0.828613 0.782982 0.828613 1.53789C0.828613 2.29214 1.49835 2.9029 2.32528 2.9029" fill="white"/>
<path fill-rule="evenodd" clip-rule="evenodd" d="M1.17139 11.6838H3.85539V3.94287H1.17139V11.6838Z" fill="white"/>
<path fill-rule="evenodd" clip-rule="evenodd" d="M7.62247 7.37844C7.62247 6.49072 8.04247 5.62263 9.04674 5.62263C10.051 5.62263 10.2979 6.49072 10.2979 7.35722V11.5849H12.9699V7.18437C12.9699 4.12708 11.1627 3.60001 10.051 3.60001C8.9402 3.60001 8.32754 3.97573 7.62247 4.88613V3.84399H4.94287V11.5849H7.62247V7.37844Z" fill="white"/>
</svg>
