<svg width="19" height="23" viewBox="0 0 19 23" fill="none" xmlns="http://www.w3.org/2000/svg">
<path fill-rule="evenodd" clip-rule="evenodd" d="M14.8231 2.05885C11.2312 -0.897901 6.01055 -0.650773 2.69347 2.67636L2.44874 2.92859L2.2525 3.14595C-0.885466 6.73421 -0.732823 12.1638 2.65096 15.5579L9.09779 22.0242L15.5446 15.5579L15.745 15.3505C19.0848 11.7848 19.0033 6.18817 15.5021 2.67636L15.2886 2.46902L15.0579 2.25896L14.8231 2.05885ZM4.31014 3.89421C6.94985 1.43289 10.9914 1.35172 13.7265 3.75125L13.9203 3.92733L14.0976 4.10013L14.283 4.29294L14.4597 4.49077C16.8744 7.29435 16.765 11.5011 14.1283 14.1458L9.09791 19.19L4.06731 14.1458L3.88371 13.9547C1.373 11.2433 1.36603 7.02399 3.89824 4.30647L4.11953 4.07855L4.31014 3.89421ZM9.09779 5.96392C10.8246 5.96392 12.2232 7.36678 12.2232 9.09579C12.2232 10.8248 10.8246 12.2277 9.09779 12.2277C7.37099 12.2277 5.97236 10.8248 5.97236 9.09579C5.97236 7.36678 7.37099 5.96392 9.09779 5.96392ZM7.97236 9.09579C7.97236 8.47 8.47691 7.96392 9.09779 7.96392C9.71867 7.96392 10.2232 8.47 10.2232 9.09579C10.2232 9.72158 9.71867 10.2277 9.09779 10.2277C8.47691 10.2277 7.97236 9.72158 7.97236 9.09579Z" fill="#B3B1B7"/>
</svg>
