<svg width="54" height="16" viewBox="0 0 54 16" fill="none" xmlns="http://www.w3.org/2000/svg">
<path fill-rule="evenodd" clip-rule="evenodd" d="M54 16V0H51V16H54ZM14.6981 1.57111C13.4194 1.19 12.0188 1 10.5 1C8.98151 1 7.57696 1.18991 6.28993 1.57073C5.00273 1.9516 3.8884 2.48344 2.95109 3.16539C2.01415 3.84709 1.28725 4.6444 0.772561 5.55452C0.257296 6.46567 0 7.44856 0 8.5C0 9.55144 0.257296 10.5343 0.772561 11.4455C1.28725 12.3556 2.01415 13.1529 2.95109 13.8346C3.8884 14.5166 5.00273 15.0484 6.28993 15.4293C7.57696 15.8101 8.98151 16 10.5 16C12.0188 16 13.4194 15.81 14.6981 15.4289C15.9753 15.0482 17.0884 14.5169 18.0337 13.836C18.9803 13.1541 19.7124 12.3563 20.2274 11.4455C20.7427 10.5343 21 9.55144 21 8.5C21 7.44856 20.7427 6.46567 20.2274 5.55452C19.7124 4.6437 18.9803 3.8459 18.0337 3.16397C17.0884 2.48305 15.9753 1.95178 14.6981 1.57111ZM43.9347 4.55465C43.167 4.18413 42.2944 4 41.322 4C40.1055 4 39.0172 4.25523 38.0638 4.76754C37.1091 5.28054 36.3572 5.98778 35.8146 6.88418C35.2709 7.7823 35 8.81675 35 9.97958C35 11.1389 35.2586 12.1767 35.7777 13.086C36.2976 13.9969 37.017 14.713 37.9303 15.2281C38.8435 15.7432 39.8859 16 41.0497 16C41.7534 16 42.4124 15.8972 43.0249 15.6908C43.6285 15.4874 44.1648 15.2241 44.6325 14.9005L44.8581 14.7375L44.9699 14.648V15.7958H48V4.22462H44.9699V5.16307L44.95 5.14819L44.7177 4.99073C44.4783 4.83631 44.2173 4.69101 43.9347 4.55465ZM22 5H25.1619L28.4909 12.1047L31.9295 5H35L29.4621 16H27.3477L22 5ZM41.4895 7C40.7913 7 40.1817 7.13356 39.6537 7.39891C39.1265 7.66387 38.722 8.01763 38.4332 8.46443C38.1445 8.91113 38 9.41413 38 9.98091C38 10.5738 38.1449 11.0896 38.4332 11.5356C38.722 11.9824 39.1265 12.3361 39.6537 12.6011C40.1817 12.8664 40.7913 13 41.4895 13C42.1877 13 42.7973 12.8664 43.3253 12.6011C43.8536 12.3356 44.2624 11.9807 44.5583 11.5324C44.8523 11.0871 45 10.5725 45 9.98091C45 9.41545 44.8528 8.91363 44.5583 8.46759C44.2624 8.01928 43.8536 7.66442 43.3253 7.39891C42.7973 7.13356 42.1877 7 41.4895 7ZM8.08506 4.59228C9.05459 4.19823 10.1899 4 11.5 4C12.7746 4 13.8971 4.19815 14.8767 4.59298C15.8566 4.98789 16.619 5.52071 17.1721 6.19594C17.7237 6.86939 18 7.63486 18 8.5C18 9.35248 17.7236 10.1152 17.171 10.7958C16.6179 11.4769 15.8558 12.0124 14.8767 12.407C13.8971 12.8018 12.7746 13 11.5 13C10.1899 13 9.05459 12.8018 8.08506 12.4077C7.11448 12.0132 6.36095 11.481 5.81641 10.8063C5.27251 10.1324 5 9.36606 5 8.5C5 7.63394 5.27251 6.86763 5.81641 6.19371C6.36095 5.51901 7.11448 4.98676 8.08506 4.59228Z" fill="#B3B1B7"/>
</svg>
